<svg width="26" height="26" viewBox="0 0 26 26" fill="none" xmlns="http://www.w3.org/2000/svg">
<circle cx="13" cy="13" r="12.5" fill="white" stroke="white"/>
<path fill-rule="evenodd" clip-rule="evenodd" d="M25 13C25 19.6274 19.6274 25 13 25C6.37258 25 1 19.6274 1 13C1 6.37258 6.37258 1 13 1C19.6274 1 25 6.37258 25 13ZM17.4 10.0521L14.5746 12.8775L17.4 15.703C17.8703 16.1733 17.8749 16.9311 17.403 17.403C16.9344 17.8716 16.1771 17.8742 15.703 17.4L12.8775 14.5746L10.0521 17.4C9.5818 17.8703 8.82394 17.8749 8.35204 17.403C7.88341 16.9344 7.8809 16.1771 8.35501 15.703L11.1805 12.8775L8.35501 10.0521C7.88474 9.5818 7.88015 8.82394 8.35204 8.35204C8.82067 7.88341 9.57796 7.8809 10.0521 8.35501L12.8775 11.1805L15.703 8.35501C16.1733 7.88474 16.9311 7.88015 17.403 8.35204C17.8716 8.82067 17.8742 9.57796 17.4 10.0521Z" fill="black" fill-opacity="0.75"/>
</svg>
