<svg width="18" height="18" viewBox="0 0 18 18" fill="none" xmlns="http://www.w3.org/2000/svg">
<path fill-rule="evenodd" clip-rule="evenodd" d="M0.867855 8.76688C0.943331 8.91503 0.943331 9.08497 0.867855 9.23315L0.168207 10.6065C-0.221334 11.3712 0.0873089 12.2827 0.870859 12.6816L2.27815 13.398C2.42994 13.4753 2.53403 13.6128 2.56374 13.7753L2.83901 15.2809C2.99227 16.1192 3.80004 16.6826 4.67856 16.5633L6.25596 16.3492C6.42614 16.3263 6.59453 16.3787 6.71808 16.4933L7.8631 17.5562C8.18179 17.852 8.591 18 9 18C9.4091 18 9.81806 17.8521 10.1369 17.5562L11.2819 16.4933C11.4054 16.3787 11.5739 16.3261 11.744 16.3492L13.3214 16.5633C13.4001 16.574 13.4785 16.5792 13.5557 16.5792C14.3395 16.5793 15.0215 16.0441 15.161 15.2809L15.4362 13.7752C15.4659 13.6128 15.57 13.4753 15.7219 13.398L17.1291 12.6816C17.9127 12.2826 18.2213 11.3712 17.8318 10.6065L17.1321 9.23322C17.0567 9.08507 17.0567 8.91513 17.1321 8.76695L17.8318 7.39362C18.2213 6.62895 17.9127 5.71746 17.1291 5.31858L15.7218 4.60211C15.57 4.5248 15.4659 4.3873 15.4362 4.22488L15.161 2.71926C15.0077 1.88094 14.1999 1.31753 13.3214 1.43682L11.744 1.65091C11.5738 1.67391 11.4055 1.62149 11.2819 1.50681L10.1369 0.443873C9.49938 -0.147975 8.50062 -0.14794 7.86307 0.443873L6.71808 1.5067C6.59457 1.62135 6.42622 1.67387 6.25596 1.65081L4.67856 1.43671C3.80044 1.3175 2.99227 1.88083 2.83901 2.71916L2.56378 4.22485C2.53407 4.38723 2.42998 4.52476 2.27815 4.60204L0.870859 5.31851C0.0873089 5.71743 -0.221334 6.62884 0.168207 7.39352L0.867855 8.76688ZM9.18033 6.23162C9.18033 5.18214 10.0702 4.32831 11.1639 4.32831C12.2576 4.32831 13.1475 5.18214 13.1475 6.23162C13.1475 7.28109 12.2576 8.13492 11.1639 8.13492C10.0702 8.13492 9.18033 7.28109 9.18033 6.23162ZM12.5702 12.9448C12.4318 12.9448 12.2934 12.8941 12.1877 12.7928L5.04725 5.9413C4.83599 5.73859 4.83599 5.40992 5.04725 5.20721C5.25851 5.0045 5.60108 5.0045 5.8123 5.20721L12.9527 12.0587C13.164 12.2614 13.164 12.5901 12.9527 12.7928C12.8472 12.8942 12.7087 12.9448 12.5702 12.9448ZM8.81974 11.7684C8.81974 12.8179 7.9299 13.6718 6.83616 13.6718C5.74243 13.6718 4.85259 12.8179 4.85259 11.7684C4.85259 10.719 5.74243 9.86515 6.83616 9.86515C7.9299 9.86515 8.81974 10.719 8.81974 11.7684ZM11.1643 5.36682C11.6615 5.36682 12.0659 5.75491 12.0659 6.23194C12.0659 6.70897 11.6615 7.09709 11.1643 7.09709C10.6672 7.09709 10.2627 6.709 10.2627 6.23194C10.2627 5.75494 10.6672 5.36682 11.1643 5.36682ZM6.8364 10.9036C7.33355 10.9036 7.73804 11.2916 7.73804 11.7687C7.73804 12.2457 7.33358 12.6338 6.8364 12.6338C6.33925 12.6338 5.93479 12.2457 5.93479 11.7687C5.93479 11.2916 6.33925 10.9036 6.8364 10.9036Z" fill="#4A4A4A"/>
</svg>
